<?xml version="1.0" encoding="utf-8"?>
<svg width="800px" height="600px" viewBox="0 0 800 600" version="1.1" xmlns:xlink="http://www.w3.org/1999/xlink" xmlns="http://www.w3.org/2000/svg">
  <desc>Created with Lunacy</desc>
  <defs>
    <filter filterUnits="userSpaceOnUse" color-interpolation-filters="sRGB" id="filter_1">
      <feFlood flood-opacity="0" result="BackgroundImageFix" />
      <feBlend mode="normal" in="SourceGraphic" in2="BackgroundImageFix" result="shape" />
      <feGaussianBlur stdDeviation="35.9999962" result="effect0_gaussianBlur" />
    </filter>
    <filter filterUnits="userSpaceOnUse" color-interpolation-filters="sRGB" id="filter_2">
      <feFlood flood-opacity="0" result="BackgroundImageFix" />
      <feBlend mode="normal" in="SourceGraphic" in2="BackgroundImageFix" result="shape" />
      <feGaussianBlur stdDeviation="50.2199974" result="effect0_gaussianBlur" />
    </filter>
    <rect width="800" height="600" id="artboard_1" />
    <clipPath id="clip_1">
      <use xlink:href="#artboard_1" clip-rule="evenodd" />
    </clipPath>
  </defs>
  <g id="currency-converter-app-icon" clip-path="url(#clip_1)">
    <use xlink:href="#artboard_1" stroke="none" fill="#686868" />
    <path d="M0 0L800 0L800 600L0 600L0 0Z" id="Bg" fill="#F5F5F5" stroke="none" />
    <g id="AppIcon-and-Shadow" transform="translate(220 120)">
      <g filter="url(#filter_1)">
        <path d="M0 0L270.4 0L270.4 321.432L0 321.432L0 0Z" transform="translate(48 59.56785)" id="Shadow" fill="#4F0000" fill-opacity="0.3" stroke="none" />
      </g>
      <g id="AppIcon">
        <path d="M264 0C322.23 0 360 37.7702 360 96L360 264C360 322.23 322.23 360 264 360L96 360C37.7702 360 0 322.23 0 264L0 96C0 37.7702 37.7702 0 96 0L264 0Z" id="IconBg" fill="#FF4F4F" stroke="none" />
        <g id="Shapes" transform="translate(50.4 93.6451)">
          <path d="M86.1213 172.71C133.685 172.71 172.243 134.047 172.243 86.3549C172.243 38.6624 133.685 0 86.1213 0C38.5578 0 0 38.6624 0 86.3549C0 134.047 38.5578 172.71 86.1213 172.71Z" transform="translate(86.95742 0)" id="Shape3" fill="#FFFFFF" stroke="none" />
          <path d="M86.1213 172.71C133.685 172.71 172.243 134.047 172.243 86.3549C172.243 38.6624 133.685 0 86.1213 0C38.5578 0 0 38.6624 0 86.3549C0 134.047 38.5578 172.71 86.1213 172.71Z" id="Shape2" fill="#FFFFFF" stroke="none" />
          <g filter="url(#filter_2)">
            <path d="M42.6426 9.39861e-06C17.1316 14.9899 0 42.7679 0 74.5581C0 106.348 17.1316 134.126 42.6426 149.116C68.1536 134.126 85.2852 106.348 85.2852 74.5581C85.2852 42.7679 68.1536 14.9899 42.6426 9.39861e-06Z" transform="translate(86.95742 11.79681)" id="Shadow" fill="#C72E2E" fill-opacity="0.4" fill-rule="evenodd" stroke="none" />
          </g>
          <path d="M42.6426 9.39861e-06C17.1316 14.9899 0 42.7679 0 74.5581C0 106.348 17.1316 134.126 42.6426 149.116C68.1536 134.126 85.2852 106.348 85.2852 74.5581C85.2852 42.7679 68.1536 14.9899 42.6426 9.39861e-06Z" transform="translate(86.95742 11.79681)" id="Shape1" fill="#FFFFFF" fill-rule="evenodd" stroke="none" />
        </g>
      </g>
    </g>
    <path d="M0 0L800 0L800 600L0 600L0 0Z" id="Overlay" fill="#FF898C" fill-opacity="0.3" style="mix-blend-mode: overlay;" stroke="none" />
  </g>
</svg>